<svg width="1436" height="51" viewBox="0 0 1436 51" fill="none" xmlns="http://www.w3.org/2000/svg">
<path opacity="0.25" d="M0 0V21.4638C60.3349 31.7576 130.782 36.3805 199.475 34.4469C288.305 31.957 371.592 19.0017 460.56 17.0589C553.783 15.0372 646.829 24.8858 736.038 33.4083C823.491 41.7545 910.641 44.9447 1000.41 39.4732C1046.04 36.6911 1088.59 31.2011 1132.27 25.8688C1249.23 11.592 1405.16 -6.62601 1515 24.3294V0H0Z" fill="#4A33CF"/>
<path opacity="0.5" d="M0 0V7.33081C16.4125 17.1191 34.8955 26.365 60.2086 33.4083C125.505 51.5939 208.313 51.4687 283.532 42.464C322.859 37.7576 359.396 30.3758 396.741 24.0094C448.402 15.1995 503.712 2.68008 561.914 0.978369C607.692 -0.343125 651.425 5.34625 686.396 15.6122C726.506 27.385 765.075 44.3604 817.229 49.4609C868.284 54.4641 919.933 46.3589 967.631 38.2027C1015.33 30.0466 1062.52 20.1192 1115.24 18.2412C1190.65 15.5287 1258.26 28.8503 1328.48 36.2506C1366.61 40.2661 1402.97 39.1116 1438.43 32.773C1466.75 27.7235 1499.03 20.2861 1515 9.94134V0H0Z" fill="#4A33CF"/>
<path opacity="0.5" d="M0 0V7.33081C16.4125 17.1191 34.8955 26.365 60.2086 33.4083C125.505 51.5939 208.313 51.4687 283.532 42.464C322.859 37.7576 359.396 30.3758 396.741 24.0094C448.402 15.1995 503.712 2.68008 561.914 0.978369C607.692 -0.343125 651.425 5.34625 686.396 15.6122C726.506 27.385 765.075 44.3604 817.229 49.4609C868.284 54.4641 919.933 46.3589 967.631 38.2027C1015.33 30.0466 1062.52 20.1192 1115.24 18.2412C1190.65 15.5287 1258.26 28.8503 1328.48 36.2506C1366.61 40.2661 1402.97 39.1116 1438.43 32.773C1466.75 27.7235 1499.03 20.2861 1515 9.94134V0H0Z" fill="#4A33CF"/>
<path d="M0 0V2.61053C189.287 27.3572 396.539 33.0698 600.735 19.7389C655.023 16.1964 707.076 10.4097 761.843 7.46991C836.331 3.46834 903.849 13.1454 970.863 23.8842C1045.26 35.8055 1118.58 44.1611 1200.89 41.7314C1310.13 38.4856 1418.62 20.5365 1515 2.40651V0H0Z" fill="#4A33CF"/>
</svg>
