<svg width="1439" height="92" viewBox="0 0 1439 92" fill="none" xmlns="http://www.w3.org/2000/svg">
<path opacity="0.25" d="M0 0V38.7191C57.4277 57.2882 124.481 65.6275 189.863 62.1395C274.413 57.6478 353.687 34.2775 438.368 30.7728C527.099 27.1259 615.662 44.892 700.572 60.2659C783.811 75.3219 866.762 81.0767 952.201 71.2066C995.641 66.1879 1036.14 56.2844 1077.71 46.6653C1189.04 20.9111 1337.46 -11.9528 1442 43.8883V0H0Z" fill="#4A33CF"/>
<path opacity="0.5" d="M0 0V13.2242C15.6217 30.8816 33.2141 47.5603 57.3075 60.2659C119.458 93.0713 198.275 92.8455 269.87 76.6017C307.302 68.1118 342.078 54.7956 377.624 43.3112C426.796 27.4187 479.441 4.83466 534.838 1.7649C578.41 -0.61897 620.036 9.64422 653.322 28.1631C691.499 49.4005 728.21 80.0228 777.851 89.2237C826.446 98.2489 875.606 83.6278 921.005 68.9148C966.404 54.2017 1011.32 36.2934 1061.5 32.9058C1133.28 28.0126 1197.63 52.0437 1264.47 65.3933C1300.76 72.6369 1335.36 70.5542 1369.12 59.12C1396.07 50.0111 1426.8 36.5945 1442 17.9334V0H0Z" fill="#4A33CF"/>
<path opacity="0.5" d="M0 0V13.2242C15.6217 30.8816 33.2141 47.5603 57.3075 60.2659C119.458 93.0713 198.275 92.8455 269.87 76.6017C307.302 68.1118 342.078 54.7956 377.624 43.3112C426.796 27.4187 479.441 4.83466 534.838 1.7649C578.41 -0.61897 620.036 9.64422 653.322 28.1631C691.499 49.4005 728.21 80.0228 777.851 89.2237C826.446 98.2489 875.606 83.6278 921.005 68.9148C966.404 54.2017 1011.32 36.2934 1061.5 32.9058C1133.28 28.0126 1197.63 52.0437 1264.47 65.3933C1300.76 72.6369 1335.36 70.5542 1369.12 59.12C1396.07 50.0111 1426.8 36.5945 1442 17.9334V0H0Z" fill="#4A33CF"/>
<path d="M0 0V4.70919C180.166 49.3503 377.431 59.6553 571.789 35.6075C623.461 29.217 673.005 18.7782 725.134 13.4751C796.032 6.25661 860.297 23.7132 924.082 43.0853C994.896 64.5903 1064.68 79.6631 1143.03 75.2801C1247.01 69.425 1350.26 37.0462 1442 4.34115V0H0Z" fill="#4A33CF"/>
</svg>
